<svg width="32" height="32" viewBox="0 0 32 32" fill="none" xmlns="http://www.w3.org/2000/svg">
<path d="M0 16C0 7.16344 7.16344 0 16 0C24.8366 0 32 7.16344 32 16C32 24.8366 24.8366 32 16 32C7.16344 32 0 24.8366 0 16Z" fill="#65AAEA"/>
<path d="M15.9969 9C14.7397 9 13.5341 9.49906 12.6451 10.3874C11.7562 11.2757 11.2568 12.4806 11.2568 13.7368V17.4316L10.2076 19.0105C10.0818 19.2043 10.0105 19.4282 10.0011 19.659C9.99164 19.8897 10.0444 20.1188 10.1539 20.3221C10.2634 20.5255 10.4256 20.6957 10.6235 20.815C10.8214 20.9342 11.0478 20.9981 11.2789 21H20.7149C20.9475 20.9992 21.1756 20.9356 21.3749 20.8159C21.5742 20.6961 21.7375 20.5247 21.8473 20.3199C21.9571 20.115 22.0094 19.8842 21.9986 19.652C21.9879 19.4199 21.9145 19.1949 21.7862 19.0011L20.7371 17.4316V13.7368C20.7371 12.4806 20.2377 11.2757 19.3487 10.3874C18.4598 9.49906 17.2541 9 15.9969 9Z" fill="white"/>
<path d="M16 23C16.4388 22.9996 16.8667 22.9033 17.2248 22.7243C17.5829 22.5452 17.8537 22.2922 18 22H14C14.1463 22.2922 14.4171 22.5452 14.7752 22.7243C15.1333 22.9033 15.5612 22.9996 16 23Z" fill="white"/>
</svg>
