<svg width="32" height="32" viewBox="0 0 32 32" fill="none" xmlns="http://www.w3.org/2000/svg">
<path d="M0 16C0 7.16344 7.16344 0 16 0C24.8366 0 32 7.16344 32 16C32 24.8366 24.8366 32 16 32C7.16344 32 0 24.8366 0 16Z" fill="#65AAEA"/>
<path d="M19.75 14.25H19.3333V12.5C19.3333 10.5697 17.8383 9 16 9C14.1617 9 12.6667 10.5697 12.6667 12.5V14.25H12.25C11.5611 14.25 11 14.8386 11 15.5625V21.6875C11 22.4114 11.5611 23 12.25 23H19.75C20.4389 23 21 22.4114 21 21.6875V15.5625C21 14.8386 20.4389 14.25 19.75 14.25ZM13.7778 12.5C13.7778 11.2132 14.7744 10.1667 16 10.1667C17.2256 10.1667 18.2222 11.2132 18.2222 12.5V14.25H13.7778V12.5ZM16.5556 18.7545V20.0833C16.5556 20.4053 16.3072 20.6667 16 20.6667C15.6928 20.6667 15.4444 20.4053 15.4444 20.0833V18.7545C15.1139 18.5521 14.8889 18.1799 14.8889 17.75C14.8889 17.1066 15.3872 16.5833 16 16.5833C16.6128 16.5833 17.1111 17.1066 17.1111 17.75C17.1111 18.1799 16.8861 18.5521 16.5556 18.7545Z" fill="white"/>
</svg>
