<svg width="32" height="32" viewBox="0 0 32 32" fill="none" xmlns="http://www.w3.org/2000/svg">
<path d="M0 16C0 7.16344 7.16344 0 16 0C24.8366 0 32 7.16344 32 16C32 24.8366 24.8366 32 16 32C7.16344 32 0 24.8366 0 16Z" fill="#65AAEA"/>
<path d="M23.5 22.3209C23.5 22.3209 23.5 19.8519 21.6281 18.9546C20.4434 18.3866 20.8999 18.8211 19.4454 18.2401C17.9911 17.6599 17.6466 17.4702 17.6466 17.4702L17.6337 16.1393C17.6337 16.1393 18.1784 15.741 18.3483 14.4824C18.6884 14.5772 18.8035 14.0982 18.822 13.7922C18.8421 13.4966 19.0231 12.5752 18.6071 12.6574C18.6921 12.0422 18.7589 11.486 18.7289 11.1915C18.6249 10.1581 17.8833 9.07882 16.0114 9C14.42 9.07882 13.3869 10.1588 13.2827 11.1922C13.2527 11.4867 13.3138 12.0425 13.3989 12.6588C12.9831 12.5754 13.1622 13.4986 13.1805 13.794C13.2006 14.1 13.3131 14.5804 13.6539 14.4855C13.8231 15.7444 14.3678 16.1457 14.3678 16.1457L14.3542 17.4837C14.3542 17.4837 14.0097 17.6863 12.5554 18.2665C11.1011 18.8478 11.5572 18.3869 10.3725 18.9546C8.5001 19.8523 8.5001 22.3209 8.5001 22.3209C8.49987 22.3214 8.5001 22.322 8.5001 22.3225C8.5001 22.6967 8.81486 23 9.20321 23H22.7967C23.185 23 23.4998 22.6967 23.4998 22.3225C23.4998 22.3218 23.5 22.3214 23.5 22.3209Z" fill="white"/>
</svg>
