<svg width="32" height="32" viewBox="0 0 32 32" fill="none" xmlns="http://www.w3.org/2000/svg">
<path d="M0 16C0 7.16344 7.16344 0 16 0C24.8366 0 32 7.16344 32 16C32 24.8366 24.8366 32 16 32C7.16344 32 0 24.8366 0 16Z" fill="#65AAEA"/>
<path fill-rule="evenodd" clip-rule="evenodd" d="M10.4 10.5H21.6C22.37 10.5 23 11.1188 23 11.875V20.125C23 20.8812 22.37 21.5 21.6 21.5H10.4C9.63 21.5 9 20.8812 9 20.125V11.875C9 11.1188 9.63 10.5 10.4 10.5ZM16 16.5L22 12.9286V11.5L16 15.0714L10 11.5V12.9286L16 16.5Z" fill="white"/>
</svg>
