<svg width="41" height="40" viewBox="0 0 41 40" fill="none" xmlns="http://www.w3.org/2000/svg">
<path d="M0.5 8C0.5 3.58172 4.08172 0 8.5 0H32.5C36.9183 0 40.5 3.58172 40.5 8V32C40.5 36.4183 36.9183 40 32.5 40H8.5C4.08172 40 0.5 36.4183 0.5 32V8Z" fill="#65AAEA"/>
<path d="M24.9504 20.9796C24.9504 23.1724 23.1726 24.9502 20.9798 24.9502C18.787 24.9502 17.0092 23.1724 17.0092 20.9796C17.0092 18.7868 18.787 17.009 20.9798 17.009C23.1726 17.009 24.9504 18.7868 24.9504 20.9796Z" fill="white"/>
<path d="M27.6855 8.97961H14.2737C11.3544 8.97961 8.97961 11.3544 8.97961 14.2737V27.6855C8.97961 30.6048 11.3544 32.9796 14.2737 32.9796H27.6855C30.6048 32.9796 32.9796 30.6048 32.9796 27.6855V14.2737C32.9796 11.3544 30.6048 8.97961 27.6855 8.97961ZM20.9796 27.5973C17.3306 27.5973 14.362 24.6286 14.362 20.9796C14.362 17.3306 17.3306 14.362 20.9796 14.362C24.6286 14.362 27.5973 17.3306 27.5973 20.9796C27.5973 24.6286 24.6286 27.5973 20.9796 27.5973ZM28.5679 14.7149C27.8368 14.7149 27.2443 14.1224 27.2443 13.3914C27.2443 12.6603 27.8368 12.0678 28.5679 12.0678C29.2989 12.0678 29.8914 12.6603 29.8914 13.3914C29.8914 14.1224 29.2989 14.7149 28.5679 14.7149Z" fill="white"/>
</svg>
