<svg width="48" height="48" viewBox="0 0 48 48" fill="none" xmlns="http://www.w3.org/2000/svg">
<g clip-path="url(#clip0_710_467)">
<path d="M24 47.2969C36.8665 47.2969 47.2969 36.8665 47.2969 24C47.2969 11.1335 36.8665 0.703125 24 0.703125C11.1335 0.703125 0.703125 11.1335 0.703125 24C0.703125 36.8665 11.1335 47.2969 24 47.2969Z" fill="#FEF5E4"/>
<path d="M24 43.5234C34.7825 43.5234 43.5234 34.7825 43.5234 24C43.5234 13.2175 34.7825 4.47656 24 4.47656C13.2175 4.47656 4.47656 13.2175 4.47656 24C4.47656 34.7825 13.2175 43.5234 24 43.5234Z" fill="#FFF5EE"/>
<path d="M24 4.47656C23.2388 4.47656 22.4884 4.52166 21.75 4.60641C31.4725 5.72222 39.0234 13.9786 39.0234 24C39.0234 34.0214 31.4725 42.2778 21.75 43.3936C22.4884 43.4783 23.2388 43.5234 24 43.5234C34.7825 43.5234 43.5234 34.7825 43.5234 24C43.5234 13.2175 34.7825 4.47656 24 4.47656Z" fill="#FFF5EE"/>
<path d="M32.5957 23.0868L18.4228 14.9041C17.7199 14.4982 16.8412 15.0055 16.8412 15.8172V32.1827C16.8412 32.9944 17.7199 33.5016 18.4228 33.0958L32.5957 24.9131C33.2987 24.5072 33.2987 23.4926 32.5957 23.0868Z" fill="#5BA092"/>
<path d="M24 44.2266C18.5973 44.2266 13.5179 42.1226 9.69759 38.3023C5.87728 34.4821 3.77344 29.4027 3.77344 24C3.77344 20.727 4.5735 17.4758 6.08709 14.5978C7.55194 11.8126 9.68213 9.37087 12.2473 7.53647C12.985 7.00884 13.803 8.15278 13.0653 8.68031C10.6776 10.3877 8.69503 12.6603 7.33172 15.2524C5.92388 17.9293 5.17969 20.9542 5.17969 24C5.17969 34.3776 13.6224 42.8203 24 42.8203C34.3776 42.8203 42.8203 34.3776 42.8203 24C42.8203 13.6224 34.3776 5.17969 24 5.17969C21.5623 5.17969 19.1907 5.63869 16.951 6.54403C16.1101 6.88378 15.5831 5.58009 16.4241 5.24025C18.8319 4.26694 21.3809 3.77344 24 3.77344C29.4027 3.77344 34.4821 5.87738 38.3024 9.69769C42.1227 13.518 44.2266 18.5973 44.2266 24C44.2266 29.4027 42.1227 34.4821 38.3024 38.3023C34.4821 42.1226 29.4027 44.2266 24 44.2266Z" fill="#6D6D78"/>
<path d="M24 48C17.5894 48 11.5624 45.5035 7.02938 40.9706C2.49647 36.4375 0 30.4106 0 24C0 17.5894 2.49647 11.5625 7.02938 7.02938C11.5624 2.49647 17.5894 0 24 0C30.4106 0 36.4376 2.49647 40.9706 7.02938C45.5035 11.5625 48 17.5894 48 24C48 27.8416 47.1194 31.5119 45.3829 34.9092C43.7267 38.1492 41.3088 41.019 38.3907 43.2086C37.6655 43.7533 36.8213 42.6281 37.5468 42.0838C40.2947 40.022 42.5714 37.3197 44.1307 34.2692C45.7651 31.0719 46.5938 27.6169 46.5938 24C46.5938 17.9649 44.2436 12.2912 39.9762 8.02378C35.7088 3.75637 30.0351 1.40625 24 1.40625C17.9649 1.40625 12.2912 3.75637 8.02378 8.02378C3.75637 12.2912 1.40625 17.9649 1.40625 24C1.40625 30.0351 3.75637 35.7088 8.02378 39.9762C12.2912 44.2436 17.9649 46.5938 24 46.5938C27.4411 46.5938 30.7447 45.8404 33.819 44.3544C34.6357 43.9599 35.2476 45.2259 34.4309 45.6205C31.1643 47.1995 27.6548 48 24 48Z" fill="#6D6D78"/>
<path d="M17.8957 33.9431C16.9334 33.9431 16.1382 33.1374 16.1382 32.1827V22.0313C16.1382 21.1243 17.5445 21.1243 17.5445 22.0313V32.1827C17.5445 32.4512 17.8389 32.6212 18.0714 32.4869L32.2443 24.3042C32.4768 24.17 32.4768 23.83 32.2443 23.6958L18.0714 15.5131C17.8389 15.3789 17.5445 15.5488 17.5445 15.8173V18.0938C17.5445 19.0007 16.1382 19.0007 16.1382 18.0938V15.8173C16.1382 14.4922 17.6262 13.6322 18.7745 14.2953L32.9474 22.478C34.0951 23.1407 34.0956 24.8591 32.9474 25.5221L18.7745 33.7048C18.4993 33.8636 18.1974 33.9431 17.8957 33.9431Z" fill="#6D6D78"/>
</g>
<defs>
<clipPath id="clip0_710_467">
<rect width="48" height="48" fill="white"/>
</clipPath>
</defs>
</svg>
